<svg width="107" height="24" viewBox="0 0 107 24" fill="none" xmlns="http://www.w3.org/2000/svg">
<path d="M18.9293 2.22221C14.0683 -1.10052 7.62321 -0.721608 3.38235 3.52444C2.36405 4.54426 1.69326 5.57057 1.07894 6.99759C0.513903 8.31119 0 10.1743 0 11.993C0 14.6738 1.0292 17.1747 2.12994 18.7913C3.33202 20.5586 5.1221 22.0325 7.06362 22.9053C16.9682 27.3519 27.2772 17.4805 23.0097 7.19151C22.2047 5.25069 20.5554 3.33307 18.9293 2.22221ZM2.07892 7.63409C3.74551 3.76719 6.87183 1.08119 12.0183 1.08119C16.3665 1.08119 19.9594 3.57536 21.7653 7.19615C22.0698 7.80969 22.2574 8.38971 22.4682 9.09487L22.8984 11.3728H20.5658C20.5658 9.08466 19.4029 7.18084 17.9351 5.69849C14.1145 1.8433 7.04994 2.7258 4.29188 8.10625C3.68324 9.29505 3.66689 9.99673 3.34478 11.3733H1.11639C1.25658 10.0195 1.5845 8.78137 2.07892 7.63409ZM19.4487 11.3733H17.3425C16.7002 8.60856 15.0118 6.66102 11.8935 6.66102C8.94913 6.66311 7.24265 8.75075 6.6899 11.3733H4.46152L4.76056 9.93793C5.04059 8.81791 6.02375 7.13944 6.81223 6.53553C7.18398 6.24905 7.34793 6.05514 7.77881 5.76611C10.0504 4.24677 12.3892 4.09506 14.9753 5.06478C17.2453 5.9148 19.449 8.84168 19.449 11.3733H19.4487ZM16.5515 21.8624C13.709 23.148 10.1814 23.2495 7.39374 21.748L6.31943 21.1681H17.7156L16.5515 21.8624ZM19.0784 20.0531H4.95594C4.46801 20.0531 3.47534 18.6941 3.22221 18.3185H20.8131C20.5815 18.6641 19.508 20.0532 19.0784 20.0532V20.0531ZM21.5127 17.1816L21.1365 17.201H2.5883L1.73466 15.466H22.2995L21.5127 17.1816ZM22.6712 14.3486H1.36407C1.18504 14.1021 1.03592 12.7579 1.11639 12.6129H7.80688C7.80688 11.1673 7.8732 10.1835 8.94669 9.04349C10.5305 7.36258 13.4035 7.36769 15.021 8.98701C16.1441 10.1128 16.2291 11.2643 16.2291 12.6129H22.9196C22.9706 13.1014 22.8377 13.9106 22.6712 14.3487V14.3486Z" fill="#FF5100"/>
<path d="M33 0H32V24H33V0Z" fill="#FF5100"/>
<path d="M57.8153 19.4995C56.2136 19.4995 54.8963 18.895 53.9005 17.704C52.9203 16.5299 52.4231 14.9341 52.4231 12.9604V10.9594C52.4231 9.71248 52.6409 8.58944 53.0708 7.62141C53.5127 6.63123 54.1532 5.85471 54.975 5.31457C55.7948 4.77384 56.7441 4.5 57.7964 4.5C58.8522 4.5 59.8056 4.77384 60.6292 5.31457C61.4496 5.85518 62.0901 6.6337 62.5328 7.62859C62.9676 8.60181 63.1883 9.72296 63.1883 10.9594V13.0386C63.1883 14.283 62.9704 15.406 62.54 16.3799C62.0995 17.3675 61.4615 18.1424 60.6433 18.6837C59.8251 19.225 58.8734 19.4995 57.8153 19.4995ZM57.7965 5.75848C56.5243 5.75848 55.5399 6.20911 54.7869 7.13533C54.0313 8.07074 53.6479 9.37386 53.6479 11.0082V13.0391C53.6479 14.0832 53.8228 15.0168 54.168 15.8154C54.5065 16.5927 54.9929 17.1996 55.6127 17.6158C56.2325 18.0319 56.9724 18.2413 57.8153 18.2413C59.105 18.2413 60.0951 17.7892 60.8418 16.8591C61.5921 15.921 61.9727 14.6084 61.9727 12.9606V10.9408C61.9727 9.36184 61.5889 8.08358 60.8324 7.14287C60.0794 6.21123 59.0862 5.75848 57.7965 5.75848ZM46.2728 19.5C45.269 19.5 44.3479 19.3219 43.5366 18.9718C42.7042 18.6078 42.0666 18.0815 41.6405 17.407C41.2151 16.73 41 15.9262 41 15.0168V14.641H42.2164V15.016C42.2164 16.0396 42.5695 16.8094 43.2968 17.369C44.0467 17.9477 45.048 18.2406 46.2728 18.2406C47.3557 18.2406 48.2557 17.983 48.9483 17.4742C49.6104 16.9889 49.9321 16.3797 49.9321 15.611C49.9321 15.1009 49.818 14.6664 49.5931 14.3206C49.3593 13.9606 48.9813 13.6357 48.4714 13.354C47.924 13.0527 47.0777 12.7384 45.9589 12.4201C44.7578 12.0744 43.8835 11.7353 43.2848 11.3837C42.6575 11.0171 42.1873 10.5796 41.8881 10.0838C41.584 9.58044 41.4301 8.96869 41.4301 8.26696C41.4301 7.13321 41.8928 6.20581 42.8057 5.51091C43.677 4.8405 44.8227 4.50012 46.2095 4.50012C47.1174 4.50012 47.9454 4.68786 48.6705 5.05898C49.4056 5.43011 49.9869 5.96589 50.3966 6.6522C50.803 7.3398 51.0085 8.11997 51.0085 8.97246V9.34806H49.794V8.97235C49.794 8.03835 49.4739 7.2888 48.8162 6.67952C48.1476 6.06 47.2954 5.75801 46.21 5.75801C45.1246 5.75801 44.239 6.00841 43.5807 6.50214C42.9525 6.97432 42.6467 7.5432 42.6467 8.24117C42.6467 8.95597 42.9101 9.51496 43.4513 9.95122C44.0397 10.4273 45.041 10.8591 46.4285 11.2328C47.9346 11.6377 49.014 12.1027 49.7284 12.6525C50.6753 13.3758 51.1562 14.3626 51.1562 15.5858C51.1562 16.3648 50.9409 17.0635 50.5175 17.6636C50.1003 18.2552 49.5056 18.7162 48.7499 19.0332C48.0173 19.3423 47.1838 19.4995 46.2727 19.4995L46.2728 19.5ZM107 19.3044H105.918L102.375 13.3599H98.3193V19.3044H97.1013V4.69563H101.707C103.128 4.69563 104.281 5.0869 105.134 5.85906C106.002 6.6469 106.442 7.72458 106.442 9.05962C106.442 10.0895 106.128 11.003 105.511 11.7708C105.006 12.4021 104.38 12.8426 103.647 13.0849L107 18.6881L107 19.3044ZM98.3193 12.1008H102.155C103.077 12.1008 103.828 11.8099 104.387 11.2373C104.952 10.6588 105.226 9.94603 105.226 9.05962C105.226 8.09112 104.924 7.34875 104.305 6.79306C103.678 6.23608 102.791 5.95305 101.67 5.95305H98.3193V12.1008ZM95.3084 19.3039H86.4804V4.69563H95.3087V5.95305H87.6993V11.1655H94.3745V12.4229H87.6993V18.0458H95.3087L95.3084 19.3039ZM79.8364 19.3039H75.1855V4.69563H79.0486C80.5635 4.69563 81.7327 5.02883 82.5253 5.68687C83.3467 6.36257 83.7643 7.35146 83.7643 8.62407C83.7643 9.54429 83.5336 10.3229 83.0783 10.9386C82.8444 11.255 82.5532 11.5208 82.2212 11.7212C82.6771 11.9377 83.0834 12.2495 83.4336 12.6545C84.0543 13.3612 84.3691 14.1891 84.3691 15.1135C84.3691 16.4007 83.9578 17.4338 83.1465 18.1853C82.346 18.9275 81.232 19.3039 79.8367 19.3039H79.8364ZM76.3991 18.0458H79.8903C80.9386 18.0458 81.7311 17.7914 82.3131 17.267C82.8797 16.7556 83.1558 16.0575 83.1558 15.1352C83.1558 14.366 82.8899 13.7496 82.3431 13.2487C81.7914 12.7446 81.0287 12.4804 80.0769 12.4635H76.3988L76.3991 18.0458ZM76.3991 11.2046H79.2345C80.3593 11.2046 81.2082 10.9849 81.7563 10.5499C82.283 10.1351 82.5381 9.49211 82.5381 8.58167C82.5381 7.47277 82.1877 5.99345 79.1555 5.95305H76.3994L76.3991 11.2046ZM73.5711 19.3039H65.5137V4.69563H66.7389V18.0458H73.5715L73.5711 19.3039Z" fill="#FF5100"/>
</svg>
