<svg width="218" height="48" viewBox="0 0 218 48" fill="none" xmlns="http://www.w3.org/2000/svg">
<path d="M37.7893 4.44442C28.0851 -2.20103 15.2185 -1.44322 6.7523 7.04888C4.71944 9.08851 3.38032 11.1411 2.15393 13.9952C1.02592 16.6224 0 20.3486 0 23.986C0 29.3475 2.05463 34.3493 4.25208 37.5826C6.65184 41.1172 10.2254 44.065 14.1014 45.8105C33.8742 54.7039 54.4545 34.961 45.9351 14.383C44.3282 10.5014 41.0356 6.66614 37.7893 4.44442ZM4.15022 15.2682C7.4773 7.53437 13.7185 2.16239 23.9925 2.16239C32.6731 2.16239 39.8458 7.15071 43.4508 14.3923C44.0587 15.6194 44.4332 16.7794 44.8541 18.1897L45.7129 22.7457H41.0562C41.0562 18.1693 38.7346 14.3617 35.8046 11.397C28.1773 3.6866 14.074 5.4516 8.56804 16.2125C7.35299 18.5901 7.32036 19.9935 6.6773 22.7466H2.2287C2.50856 20.0389 3.16319 17.5627 4.15022 15.2682ZM38.8261 22.7466H34.6215C33.3393 17.2171 29.9687 13.322 23.7435 13.322C17.8655 13.3262 14.4588 17.5015 13.3553 22.7466H8.9067L9.50368 19.8759C10.0627 17.6358 12.0254 14.2789 13.5995 13.0711C14.3416 12.4981 14.669 12.1103 15.5291 11.5322C20.0641 8.49353 24.7331 8.19013 29.8958 10.1296C34.4275 11.8296 38.8268 17.6834 38.8268 22.7466H38.8261ZM33.0423 43.7247C27.3678 46.296 20.3254 46.499 14.7604 43.496L12.6157 42.3362H35.3664L33.0423 43.7247ZM38.087 40.1061H9.89373C8.91966 40.1061 6.93795 37.3882 6.43263 36.6369H41.5499C41.0877 37.3281 38.9446 40.1063 38.087 40.1063V40.1061ZM42.9467 34.3632L42.1955 34.402H5.16712L3.46296 30.9321H44.5173L42.9467 34.3632ZM45.2594 28.6971H2.72314C2.36574 28.2042 2.06805 25.5158 2.2287 25.2258H15.5852C15.5852 22.3347 15.7176 20.3669 17.8606 18.087C21.0224 14.7252 26.7578 14.7354 29.987 17.974C32.2291 20.2257 32.3988 22.5286 32.3988 25.2258H45.7552C45.8571 26.2028 45.5918 27.8212 45.2594 28.6973V28.6971Z" fill="#FF5100"/>
<path d="M121.596 38.3987C118.457 38.3987 115.875 37.2379 113.923 34.9512C112.002 32.6971 111.027 29.6332 111.027 25.8435V22.0017C111.027 19.6076 111.454 17.4513 112.297 15.5927C113.163 13.6916 114.419 12.2006 116.029 11.1636C117.636 10.1254 119.497 9.59961 121.559 9.59961C123.629 9.59961 125.497 10.1254 127.112 11.1636C128.72 12.2016 129.975 13.6963 130.843 15.6065C131.695 17.4751 132.128 19.6277 132.128 22.0017V25.9937C132.128 28.3831 131.701 30.5391 130.857 32.409C129.994 34.3052 128.743 35.7929 127.139 36.8323C125.536 37.8716 123.67 38.3987 121.596 38.3987ZM121.56 12.0159C119.066 12.0159 117.137 12.8811 115.66 14.6594C114.18 16.4554 113.428 18.9574 113.428 22.0953V25.9946C113.428 27.9993 113.771 29.7919 114.447 31.3251C115.111 32.8176 116.064 33.9829 117.279 34.7819C118.494 35.5808 119.944 35.9829 121.596 35.9829C124.124 35.9829 126.065 35.115 127.529 33.3291C128.999 31.528 129.745 29.0077 129.745 25.844V21.966C129.745 18.9344 128.993 16.4801 127.51 14.6739C126.034 12.8852 124.087 12.0159 121.56 12.0159ZM98.9726 38.3996C97.0051 38.3996 95.1997 38.0577 93.6095 37.3854C91.978 36.6866 90.7283 35.676 89.8932 34.3811C89.0592 33.0813 88.6377 31.5379 88.6377 29.7919V29.0703H91.0219V29.7903C91.0219 31.7557 91.7139 33.2337 93.1395 34.3081C94.6094 35.4191 96.572 35.9815 98.9726 35.9815C101.095 35.9815 102.859 35.487 104.217 34.51C105.514 33.5784 106.145 32.4085 106.145 30.9328C106.145 29.9534 105.921 29.1191 105.481 28.4552C105.022 27.7639 104.281 27.1402 103.282 26.5993C102.209 26.0208 100.55 25.4173 98.3574 24.8062C96.0032 24.1425 94.2895 23.4915 93.116 22.8162C91.8865 22.1125 90.9648 21.2724 90.3785 20.3206C89.7824 19.3541 89.4808 18.1795 89.4808 16.8322C89.4808 14.6554 90.3876 12.8748 92.177 11.5406C93.8847 10.2534 96.1302 9.59984 98.8484 9.59984C100.628 9.59984 102.251 9.9603 103.672 10.6729C105.113 11.3854 106.252 12.4141 107.055 13.7318C107.852 15.052 108.255 16.55 108.255 18.1867V18.9079H105.874V18.1865C105.874 16.3932 105.247 14.9541 103.958 13.7843C102.647 12.5948 100.977 12.015 98.8496 12.015C96.7221 12.015 94.9862 12.4958 93.6959 13.4437C92.4646 14.3503 91.8654 15.4426 91.8654 16.7826C91.8654 18.1551 92.3815 19.2283 93.4422 20.0659C94.5956 20.98 96.5582 21.809 99.2778 22.5265C102.23 23.304 104.345 24.1968 105.746 25.2524C107.602 26.6411 108.544 28.5357 108.544 30.8844C108.544 32.38 108.122 33.7215 107.292 34.8737C106.475 36.0096 105.309 36.8947 103.828 37.5034C102.392 38.0968 100.758 38.3987 98.9724 38.3987L98.9726 38.3996ZM218 38.024H215.879L208.936 26.6106H200.986V38.024H198.598V9.97522H207.626C210.411 9.97522 212.671 10.7265 214.342 12.209C216.045 13.7216 216.906 15.7908 216.906 18.3541C216.906 20.3314 216.292 22.0854 215.082 23.5595C214.092 24.7716 212.865 25.6174 211.427 26.0826L218 36.8408L218 38.024ZM200.986 24.1932H208.505C210.311 24.1932 211.784 23.6346 212.878 22.5351C213.986 21.4246 214.524 20.056 214.524 18.3541C214.524 16.4946 213.932 15.0692 212.719 14.0023C211.488 12.9329 209.75 12.3895 207.553 12.3895H200.986V24.1932ZM195.084 38.0231H177.781V9.97522H195.085V12.3895H180.17V22.3974H193.254V24.8117H180.17V35.6075H195.085L195.084 38.0231ZM164.759 38.0231H155.643V9.97522H163.215C166.184 9.97522 168.475 10.615 170.029 11.8784C171.639 13.1758 172.457 15.0744 172.457 17.5178C172.457 19.2846 172.005 20.7796 171.113 21.9617C170.654 22.5692 170.084 23.0796 169.433 23.4643C170.326 23.88 171.123 24.4786 171.809 25.2563C173.026 26.6131 173.643 28.2026 173.643 29.9776C173.643 32.449 172.837 34.4325 171.247 35.8755C169.677 37.3004 167.494 38.0231 164.759 38.0231H164.759ZM158.021 35.6075H164.864C166.919 35.6075 168.472 35.119 169.613 34.1123C170.724 33.1304 171.265 31.7901 171.265 30.0192C171.265 28.5423 170.743 27.3589 169.672 26.3971C168.591 25.4293 167.096 24.922 165.23 24.8895H158.021L158.021 35.6075ZM158.021 22.4725H163.579C165.783 22.4725 167.447 22.0505 168.522 21.2154C169.554 20.4189 170.054 19.1845 170.054 17.4364C170.054 15.3073 169.367 12.467 163.424 12.3895H158.022L158.021 22.4725ZM152.478 38.0231H136.685V9.97522H139.087V35.6075H152.479L152.478 38.0231Z" fill="#FF5100"/>
<path d="M69.4728 0H67.0771V48H69.4728V0Z" fill="#FF5100"/>
</svg>
